<?xml version="1.0" encoding="utf-8"?>
<!-- Generator: Adobe Illustrator 23.0.0, SVG Export Plug-In . SVG Version: 6.00 Build 0)  -->
<svg version="1.1" id="Capa_1" xmlns="http://www.w3.org/2000/svg" xmlns:xlink="http://www.w3.org/1999/xlink" x="0px" y="0px"
	 viewBox="0 0 478.2 478.2" style="enable-background:new 0 0 478.2 478.2;" xml:space="preserve">
<style type="text/css">
	.st0{fill:#8F8F8F;}
</style>
<g>
	<path class="st0" d="M461.7,133c0.7-14-2.8-33.9-22.7-51.9c1.3-9.2,1.3-23.7-6.8-38.3c-10.6-19.1-31.5-32.1-62.1-38.6
		c-13-2.8-28.6-4.2-46.5-4.2c-10.4,0-21.6,0.5-33.5,1.4c-65.7-1.3-129.7,6.8-133.3,7.3l-23.5,2.8c-6.8-4.8-15.1-7.6-24-7.6h-61
		C25.4,3.9,6.7,22.5,6.7,45.5V208c0,22.9,18.6,41.6,41.6,41.6h61c7.2,0,13.9-1.8,19.8-5c4.2,9.2,10.4,19.7,19.6,29.4
		c0.5,0.5,1,1,1.6,1.4c31.3,24.1,68.3,110.9,81.5,146.3c-1.4,11-2.7,34.8,8.4,47.7c4.9,5.7,11.8,8.8,19.3,8.8
		c7.8,0,34.3-1.8,50.9-24.7c15.8-21.8,16.6-54.4,2.6-97c-11.8-35.8-12.9-51.7-12.5-58.1c5.4,1.2,10.7,2.3,15.7,3.2h0.1
		c0.9,0.2,22.9,5.1,49.2,6.3c37.4,1.8,64.4-4.7,80.3-19.2c21.7-19.8,19.2-45.3,12.7-61.5c5.6-7.3,12.4-19.2,13-34.4
		c0.6-13.8-4.1-27.2-13.9-39.7C459.5,148,461.3,141.1,461.7,133z M48.3,30.9l61,0.1c8,0,14.6,6.5,14.6,14.6v162.5
		c0,8-6.5,14.6-14.6,14.6h-61c-8,0-14.6-6.5-14.6-14.6V45.5C33.7,37.5,40.2,30.9,48.3,30.9L48.3,30.9z M444.5,191.8
		c-0.5,13.3-11,23.2-11.1,23.3c-5,4.5-6.1,11.8-2.4,17.4c1.3,2.1,12.8,21.7-3.4,36.5c-19.1,17.4-74.1,13.3-104.8,6.6
		c-0.4-0.1-0.9-0.2-1.3-0.3c-5.5-0.9-11.3-2.1-17.4-3.5c-6.4-2.3-15.2-2-21.8,3.9c-13.3,11.8-11.9,38.6,4.9,89.5
		c11,33.4,11.4,58.6,1.2,72.7c-8.6,11.9-22.9,13.4-28.2,13.5c-2.4-4.1-3-17.8-1.3-29c0.4-2.3,0.2-4.6-0.6-6.7
		c-1.9-5.2-45.8-125.3-90.7-160.9c-11.8-12.7-16.8-27.6-18.6-34.3c1.2-3.9,1.9-8.1,1.9-12.4V45.5c0-3-0.3-6-0.9-8.8l10.1-1.2h0.1
		c0.7-0.1,65.7-8.5,130-7.1c0.5,0,1,0,1.4,0c30.2-2.4,54.8-1.7,72.9,2.2C387.1,35.4,402,44,408.7,56c7,12.5,2.7,25.7,2.7,25.8
		c-2,5.6-0.1,11.8,4.6,15.4c13.2,9.9,19.5,21.5,18.8,34.6c-0.5,9.6-4.6,16.6-4.6,16.7c-3.2,5.2-2.4,11.9,1.8,16.3
		C440.7,173.8,444.9,182.9,444.5,191.8z"/>
</g>
</svg>
