<?xml version="1.0" encoding="utf-8"?>
<!-- Generator: Adobe Illustrator 24.0.1, SVG Export Plug-In . SVG Version: 6.00 Build 0)  -->
<svg version="1.1" id="Слой_1" xmlns="http://www.w3.org/2000/svg" xmlns:xlink="http://www.w3.org/1999/xlink" x="0px" y="0px"
	 viewBox="0 0 40 26.3" style="enable-background:new 0 0 40 26.3;" xml:space="preserve">
<style type="text/css">
	.st0{fill:none;stroke:#FFFFFF;stroke-width:3;stroke-linecap:round;stroke-miterlimit:10;}
	.st1{fill:none;stroke:#FFFFFF;stroke-width:3;stroke-linecap:round;stroke-linejoin:round;stroke-miterlimit:10;}
</style>
<line class="st0" x1="14.9" y1="9.7" x2="14.9" y2="16.6"/>
<line class="st0" x1="11.5" y1="13.1" x2="18.3" y2="13.1"/>
<path class="st1" d="M38.3,6.7v12.9c0,1-0.8,1.7-1.7,1.7c-0.4,0-0.7-0.1-1-0.3l-0.1,0l-4.2-3.1l-2.7-2v4.7c0,2.3-1.9,4.1-4.2,4.1
	H5.9c-2.3,0-4.2-1.8-4.2-4.1V5.8c0-2.3,1.9-4.1,4.2-4.1h18.5c2.3,0,4.2,1.8,4.2,4.1v4.7l6.9-5.1l0.1,0c0.3-0.2,0.6-0.3,1-0.3
	C37.5,5,38.3,5.8,38.3,6.7z"/>
</svg>
