<?xml version="1.0" encoding="utf-8"?>
<!-- Generator: Adobe Illustrator 23.0.0, SVG Export Plug-In . SVG Version: 6.00 Build 0)  -->
<svg version="1.1" id="Capa_1" xmlns="http://www.w3.org/2000/svg" xmlns:xlink="http://www.w3.org/1999/xlink" x="0px" y="0px"
	 viewBox="0 0 512 512" style="enable-background:new 0 0 512 512;" xml:space="preserve">
<style type="text/css">
	.st0{fill:#8F8F8F;}
</style>
<path class="st0" d="M256,160l0,111.9c0,4.3,1.7,8.3,4.7,11.3l80.1,80.1l22.6-22.6l-75.4-75.4l0-105.3H256z"/>
<path class="st0" d="M288,32C175.4,32,82.2,115.6,66.6,224H0l80,80l80-80H98.9C114.2,133.3,193,64,288,64c105.9,0,192,86.1,192,192
	s-86.1,192-192,192c-59.5,0-114.7-26.9-151.4-73.9l-25.2,19.7C154.2,448.6,218.6,480,288,480c123.5,0,224-100.5,224-224
	S411.5,32,288,32L288,32z"/>
</svg>
