<?xml version="1.0" encoding="utf-8"?>
<!-- Generator: Adobe Illustrator 24.0.1, SVG Export Plug-In . SVG Version: 6.00 Build 0)  -->
<svg version="1.1" id="Слой_1" xmlns="http://www.w3.org/2000/svg" xmlns:xlink="http://www.w3.org/1999/xlink" x="0px" y="0px"
	 viewBox="0 0 20 20" style="enable-background:new 0 0 20 20;" xml:space="preserve">
<style type="text/css">
	.st0{fill:none;stroke:#FFFFFF;stroke-width:2;stroke-miterlimit:10;}
	.st1{fill:none;stroke:#FFFFFF;stroke-width:2;stroke-linecap:round;stroke-miterlimit:10;}
</style>
<path class="st0" d="M17.7,16c0,0.5-0.4,0.8-0.8,0.8H3.1c-0.5,0-0.8-0.4-0.8-0.8c0-0.2,0.1-0.4,0.2-0.6c0,0,0.1,0,0.1-0.1
	c1.3-1.2,2.2-2.9,2.2-4.7V8.3c0-2.9,2.3-5.2,5.2-5.2c2.9,0,5.2,2.3,5.2,5.2v2.3c0,1.9,0.8,3.5,2.2,4.7c0,0,0,0,0.1,0.1
	C17.6,15.6,17.7,15.8,17.7,16z"/>
<path class="st1" d="M7.5,16.9c0,1.4,1.1,2.5,2.5,2.5s2.5-1.1,2.5-2.5"/>
<line class="st1" x1="10" y1="0.6" x2="10" y2="3.1"/>
</svg>
