<?xml version="1.0" encoding="utf-8"?>
<!-- Generator: Adobe Illustrator 23.0.0, SVG Export Plug-In . SVG Version: 6.00 Build 0)  -->
<svg version="1.1" id="Capa_1" xmlns="http://www.w3.org/2000/svg" xmlns:xlink="http://www.w3.org/1999/xlink" x="0px" y="0px"
	 viewBox="0 0 488 488" style="enable-background:new 0 0 488 488;" xml:space="preserve">
<style type="text/css">
	.st0{fill:#8F8F8F;}
</style>
<g>
	<path class="st0" d="M483.1,215.6L267.6,38c-4-3.3-9.6-4-14.3-1.8s-7.7,7-7.7,12.2V142C141,145.8,69.1,182.7,31.7,251.8
		C-0.5,311.4-0.2,382,0.1,428.7c0,3.8,0,7.4,0,10.8c0,6.1,4.1,11.5,10.1,13.1c1.1,0.3,2.3,0.4,3.4,0.4c4.8,0,9.3-2.5,11.7-6.8
		c73-128.7,133.1-134.9,220.2-135.2v93.3c0,5.2,3,10,7.8,12.2s10.3,1.5,14.4-1.8l215.4-178.2c3.1-2.6,4.9-6.4,4.9-10.4
		S486.2,218.2,483.1,215.6z M272.6,375.6v-78.1c0-3.6-1.4-7-4-9.5c-2.5-2.5-6-4-9.5-4c-54.4,0-96.1,1.5-136.6,20.4
		c-35,16.3-65.3,44-95.2,87.5c1.2-39.7,6.4-87.1,28.1-127.2c34.4-63.6,101-95.1,203.7-96c7.4-0.1,13.4-6.1,13.4-13.5V77l180.7,149.1
		L272.6,375.6z"/>
</g>
</svg>
