<?xml version="1.0" encoding="utf-8"?>
<!-- Generator: Adobe Illustrator 23.0.0, SVG Export Plug-In . SVG Version: 6.00 Build 0)  -->
<svg version="1.1" id="Layer_1" xmlns="http://www.w3.org/2000/svg" xmlns:xlink="http://www.w3.org/1999/xlink" x="0px" y="0px"
	 viewBox="0 0 512 512" style="enable-background:new 0 0 512 512;" xml:space="preserve">
<style type="text/css">
	.st0{fill:#8F8F8F;}
</style>
<g>
	<g>
		<path class="st0" d="M503.7,231.9c-28.7-36.8-66-67.3-107.6-88.1c-42.5-21.2-88.3-32.3-136.1-32.8c-1.3,0-6.6,0-7.9,0
			c-47.8,0.6-93.6,11.6-136.1,32.8C74.3,164.6,37,195.1,8.3,231.9c-11.1,14.2-11.1,34,0,48.2c28.7,36.8,66,67.3,107.6,88.1
			c42.5,21.2,88.3,32.3,136.1,32.8c1.3,0,6.6,0,7.9,0c47.8-0.6,93.6-11.6,136.1-32.8c41.7-20.8,78.9-51.3,107.6-88.1
			C514.8,265.9,514.8,246.1,503.7,231.9z M125.2,349.6c-38.9-19.4-73.7-47.9-100.5-82.3c-5.2-6.7-5.2-15.9,0-22.6
			c26.8-34.4,61.6-62.9,100.5-82.3c11.1-5.5,22.3-10.3,33.8-14.3c-29.6,26.6-48.2,65.1-48.2,107.9c0,42.8,18.6,81.3,48.2,107.9
			C147.6,359.9,136.3,355.1,125.2,349.6z M256,380.3c-68.5,0-124.3-55.8-124.3-124.3S187.5,131.7,256,131.7S380.3,187.5,380.3,256
			S324.5,380.3,256,380.3z M487.3,267.3c-26.8,34.4-61.6,62.9-100.5,82.3c-11,5.5-22.3,10.3-33.8,14.3
			c29.6-26.6,48.2-65.1,48.2-107.9c0-42.8-18.6-81.4-48.2-107.9c11.5,4,22.8,8.8,33.9,14.3c38.9,19.4,73.7,47.9,100.5,82.3
			C492.5,251.4,492.5,260.6,487.3,267.3z"/>
	</g>
</g>
<g>
	<g>
		<path class="st0" d="M256,202.8c-29.3,0-53.2,23.9-53.2,53.2s23.9,53.2,53.2,53.2s53.2-23.9,53.2-53.2
			C309.2,226.7,285.3,202.8,256,202.8z M256,288.4c-17.8,0-32.4-14.5-32.4-32.4c0-17.8,14.5-32.4,32.4-32.4
			c17.8,0,32.4,14.5,32.4,32.4C288.4,273.8,273.8,288.4,256,288.4z"/>
	</g>
</g>
</svg>
